<?xml version="1.0" standalone="no"?>
<!DOCTYPE svg PUBLIC "-//W3C//DTD SVG 1.1//EN" "http://www.w3.org/Graphics/SVG/1.1/DTD/svg11.dtd" >
<svg xmlns="http://www.w3.org/2000/svg">
<metadata>
Created by FontForge 20120731 at Fri Jun  2 14:11:09 2017
 By admin
</metadata>
<defs>
<font id="iconfont" horiz-adv-x="1024" >
  <font-face 
    font-family="iconfont"
    font-weight="500"
    font-stretch="normal"
    units-per-em="1024"
    panose-1="2 0 6 3 0 0 0 0 0 0"
    ascent="896"
    descent="-128"
    x-height="792"
    bbox="0 -212 1365 896"
    underline-thickness="0"
    underline-position="0"
    unicode-range="U+0078-E772"
  />
<missing-glyph 
 />
    <glyph glyph-name=".notdef" 
 />
    <glyph glyph-name=".notdef" 
 />
    <glyph glyph-name=".null" horiz-adv-x="0" 
 />
    <glyph glyph-name="nonmarkingreturn" horiz-adv-x="341" 
 />
    <glyph glyph-name="x" unicode="x" horiz-adv-x="1001" 
d="M281 543q-27 -1 -53 -1h-83q-18 0 -36.5 -6t-32.5 -18.5t-23 -32t-9 -45.5v-76h912v41q0 16 -0.5 30t-0.5 18q0 13 -5 29t-17 29.5t-31.5 22.5t-49.5 9h-133v-97h-438v97zM955 310v-52q0 -23 0.5 -52t0.5 -58t-10.5 -47.5t-26 -30t-33 -16t-31.5 -4.5q-14 -1 -29.5 -0.5
t-29.5 0.5h-32l-45 128h-439l-44 -128h-29h-34q-20 0 -45 1q-25 0 -41 9.5t-25.5 23t-13.5 29.5t-4 30v167h911zM163 247q-12 0 -21 -8.5t-9 -21.5t9 -21.5t21 -8.5q13 0 22 8.5t9 21.5t-9 21.5t-22 8.5zM316 123q-8 -26 -14 -48q-5 -19 -10.5 -37t-7.5 -25t-3 -15t1 -14.5
t9.5 -10.5t21.5 -4h37h67h81h80h64h36q23 0 34 12t2 38q-5 13 -9.5 30.5t-9.5 34.5q-5 19 -11 39h-368zM336 498v228q0 11 2.5 23t10 21.5t20.5 15.5t34 6h188q31 0 51.5 -14.5t20.5 -52.5v-227h-327z" />
    <glyph glyph-name="yonghu" unicode="&#xe6db;" 
d="M150 -147q-1 11 -1 22q0 89 48.5 165t132.5 120t182 44t182 -44t132.5 -120t48.5 -165q0 -11 -1 -22h62v22q0 80 -33 153q-33 70 -92 124q-94 87 -224 108q76 24 125 90t49 148q0 104 -73 177.5t-176 73.5t-176 -73.5t-73 -177.5q0 -82 49 -148t125 -90
q-130 -21 -224 -108q-59 -54 -92 -124q-33 -73 -33 -153v-22h62zM327 498.5q0 77.5 54 132t131 54.5t131 -54.5t54 -132t-54 -132t-131 -54.5t-131 54.5t-54 132z" />
    <glyph glyph-name="edit" unicode="&#xe766;" 
d="M768 190q-15 0 -26 -10.5t-11 -25.5v-183q0 -15 -10.5 -25.5t-25.5 -10.5h-585q-15 0 -25.5 10.5t-10.5 25.5v585q0 15 10.5 25.5t25.5 10.5h475q15 0 26 11t11 26t-11 25.5t-26 10.5h-511q-31 0 -52 -21.5t-21 -51.5v-657q0 -31 21 -52t52 -21h657q30 0 51.5 21t21.5 52
v219q0 15 -10.5 25.5t-25.5 10.5zM1013 614l-114 114q-11 10 -26 10t-26 -10l-103 -103l-398 -398q-5 -5 -8 -12l-85 -199q-10 -22 8 -40q10 -10 25 -10q8 0 15 2l199 86q6 2 12 7l398 398l103 103q10 11 10 26t-10 26zM356 72l34 77l44 -44zM477 130l-62 62l359 359l62 -63
zM870 523l-62 62l65 65l62 -62z" />
    <glyph glyph-name="xinjian" unicode="&#xe610;" 
d="M79 -54v157h-79v-157q0 -66 46 -112t112 -46h157v79h-157q-33 0 -56 23t-23 56zM79 654q0 33 23 56t56 23h157v79h-157q-66 0 -112 -46t-46 -112v-236h79v236zM945 -54q0 -33 -23 -56t-56 -23h-157v-79h157q66 0 112 46t46 112v157h-79v-157zM866 812h-157v-79h157
q33 0 56 -23t23 -56v-236h79v236q0 66 -46 112t-112 46zM788 300q0 16 -11.5 27.5t-28.5 11.5h-197v197q0 17 -11.5 28.5t-27.5 11.5t-27.5 -11.5t-11.5 -28.5v-197h-197q-17 0 -28.5 -11.5t-11.5 -27.5t11.5 -27.5t28.5 -11.5h197v-197q0 -17 11.5 -28.5t27.5 -11.5
t27.5 11.5t11.5 28.5v197h197q17 0 28.5 11.5t11.5 27.5z" />
    <glyph glyph-name="message" unicode="&#xe639;" 
d="M104 667q-38 0 -65.5 -27.5t-27.5 -65.5v-548q0 -39 27.5 -66t65.5 -27h816q38 0 65.5 27t27.5 66v548q0 38 -27.5 65.5t-65.5 27.5h-816v0zM920 616q16 0 28 -11l-436 -407l-436 407q12 11 28 11h816zM962 548v-461l-247 230zM62 548l247 -231l-247 -230v461zM920 -16
h-816q-17 0 -29.5 12.5t-12.5 29.5v8l9 -9l276 257l148 -137q7 -7 17 -7t17 7l148 137l276 -257l9 9v-8q0 -17 -12.5 -29.5t-29.5 -12.5z" />
    <glyph glyph-name="shujuguanli" unicode="&#xe64b;" 
d="M730 -62zM88 -62zM938 832zM906 150h-792q-21 0 -35.5 14.5t-14.5 35.5v558q0 21 14.5 35.5t35.5 14.5h792q20 0 35 -14.5t15 -35.5v-558q0 -21 -15 -35.5t-35 -14.5v0zM895 737q0 10 -10 10h-754q-10 0 -10 -10v-521q0 -10 10 -10h754q10 0 10 10v521v0zM698 570h105
v-306h-105v306v0zM530 665h106v-401h-106v401v0zM363 475h106v-211h-106v211v0zM216 381h106v-117h-106v117v0zM369 110q0 10 10 10h259q10 0 10 -10v-84h170v-60h-621v60h172v84v0zM369 110z" />
    <glyph glyph-name="tingchechang" unicode="&#xe6de;" 
d="M656 586q0 103 -74 175.5t-178 72.5q-6 0 -19 -1h-223v0h-114v-911h128v416h208q7 -1 20 -1q104 0 178 73t74 176zM384 466h-208v240h208q46 -2 81.5 -38t35.5 -81t-35.5 -82t-81.5 -39zM967 146q-1 4 -5 8.5t-7 6.5l-3 3l-46 123q-6 15 -22 25t-28 10h-241
q-11 0 -27 -10t-22 -25l-46 -123q-11 -10 -16 -18q-8 -17 -8 -69q0 -67 23 -79l10 -6v-49q0 -12 4 -16.5t15 -4.5h35q9 0 13.5 0.5t8 4.5t3.5 11v48h256v-48q0 -11 5.5 -13.5t19.5 -2.5h34q12 0 15.5 4.5t3.5 16.5v49l10 6q24 12 24 79q0 53 -9 69zM581 178q0 2 4 18.5t9 35
t7 26.5q3 7 13.5 16.5t21.5 8.5h200q11 1 21.5 -8.5t13.5 -16.5q3 -11 11.5 -45.5l8.5 -34.5q1 -4 -0.5 -5.5t-2.5 -1.5h-2h-300v0q-7 -1 -5 7zM586 45q-15 0 -26 10.5t-11 25.5t11 26t26 11t25.5 -11t10.5 -26t-10.5 -25.5t-25.5 -10.5zM887 45q-15 0 -25.5 10.5
t-10.5 25.5t10.5 26t25.5 11t26 -11t11 -26t-11 -25.5t-26 -10.5z" />
    <glyph glyph-name="shezhi2" unicode="&#xe690;" 
d="M856 352q2 17 2 32t-2 32l80 63q13 11 16 27.5t-5 30.5l-86 150q-8 14 -23.5 20t-32.5 -1l-94 -38q-26 19 -54 32l-14 101q-2 17 -15 28t-30 11h-171q-17 0 -29.5 -11t-15.5 -28l-14 -101q-28 -13 -54 -32l-94 39q-15 5 -31.5 -0.5t-24.5 -19.5l-85 -150q-9 -14 -6 -30.5
t17 -27.5l80 -63q-2 -17 -2 -32t2 -32l-81 -63q-13 -11 -16 -27.5t6 -30.5l85 -150q9 -14 24.5 -20t31.5 1l94 38q26 -19 54 -32l14 -102q3 -16 15.5 -27t29.5 -11h171q17 0 30 11t15 28l14 101q29 13 54 32l94 -39q8 -3 17 -3q26 0 39 23l86 150q8 14 5 30.5t-16 27.5z
M823 106l-106 43q-13 6 -24 -3q-32 -25 -67 -39q-12 -5 -14 -19l-16 -112l-166 -2l-16 114q-2 14 -15 19q-35 14 -67 39q-6 5 -14 5q-5 0 -9 -2l-103 -44l-87 147l91 71q10 8 9 22q-3 21 -3 39t3 39q1 14 -9 22l-90 68l82 149l107 -43q12 -6 23 3q32 24 67 39q13 5 15 19
l13 112l169 2l16 -114q2 -14 14 -19q35 -14 67 -39q11 -9 24 -3l103 44l86 -147l-90 -71q-11 -8 -9 -22q3 -22 3 -39t-3 -39q-2 -14 9 -22l89 -68zM513 565q-74 0 -127 -53t-53 -128t53 -128t127 -53t126.5 53t52.5 128t-52.5 128t-126.5 53zM512.5 251q-54.5 0 -93 39
t-38.5 94t38.5 94t93 39t93 -39t38.5 -94t-38.5 -94t-93 -39z" />
    <glyph glyph-name="cf-c36" unicode="&#xe636;" 
d="M984 576v0q0 2 -1 4l-1 2l-83 194q-11 30 -38.5 47t-63.5 17h-575q-36 0 -62.5 -17t-36.5 -45l-88 -197q0 -1 -0.5 -2.5t-0.5 -2.5q-10 -29 -10 -58q0 -50 27.5 -93.5t74.5 -66.5v0v0v0v0q39 -19 92 -19q89 0 147 66q59 -64 145.5 -64t145.5 64q57 -64 147 -64
q54 0 91 21q47 24 74 66.5t27 93.5q-3 31 -11 54v0v0zM859 416q-25 -13 -59 -13q-32 0 -59.5 14.5t-44.5 40.5q-2 4 -10 14q-12 13 -33 13q-24 0 -34 -13q-6 -6 -9 -13q-17 -25 -44.5 -39.5t-58.5 -14.5q-65 0 -104 54q-1 3 -8 13q-11 14 -33.5 14t-33.5 -12q-5 -5 -10 -15
q-17 -25 -44 -39.5t-60 -14.5q-35 0 -57 11v0v0q-30 16 -48 43t-18 59q0 22 7 39q0 1 1 3l87 194q6 19 33 19h575q29 0 36 -21l82 -190q0 -4 2 -4q6 -17 6 -36q2 -36 -14 -63.5t-47 -42.5v0v0zM518 18h-345q-8 0 -13.5 5.5t-5.5 13.5v192q0 14 -10.5 24.5t-25.5 10.5v0
q-14 0 -24.5 -10.5t-10.5 -24.5v-192q0 -38 26 -64.5t64 -26.5h345v72zM782 573h-560q-14 0 -24.5 10.5t-10.5 24.5t10.5 24.5t24.5 10.5h559q14 0 24.5 -10.5t10.5 -25t-9.5 -24.5t-24.5 -10v0v0zM808 190q-28 0 -47.5 -20t-19.5 -48.5t19.5 -48.5t47.5 -20t47.5 20
t19.5 48.5t-19.5 48.5t-47.5 20v0zM808 88q-13 0 -22.5 9.5t-9.5 24.5q0 13 9.5 23t22.5 10t22.5 -9.5t9.5 -23.5q1 -13 -9 -23.5t-23 -10.5v0zM986 158q-5 23 -23 23h-1q-16 0 -27.5 11.5t-11.5 26.5q0 4 1.5 9t1.5 6q4 8 1.5 18.5t-10.5 16.5l-45 25q-3 2 -11 2
q-14 0 -21 -10q-4 -5 -14 -11t-16 -6q-13 0 -31 17q-7 10 -21 10q-8 0 -11 -2h-1l-45 -25h-2q-18 -13 -9 -34l1.5 -5t1.5 -9q0 -16 -11.5 -27.5t-27.5 -11.5h-1q-17 0 -23 -22l-0.5 -6t-1.5 -15t-1 -16t1 -15.5t1.5 -14.5t0.5 -7q5 -22 23 -22h3q16 0 27 -11.5t11 -26.5
q0 -4 -1.5 -9.5l-1.5 -5.5q-4 -8 -1 -18.5t11 -16.5l43 -26q3 -1 11 -1q14 0 21 9q4 6 14 13t16 7q13 0 32 -20q8 -9 23 -9q8 0 13 3l44 26h2q18 13 10 33l-2 5.5t-2 9.5q0 15 11.5 26.5t27.5 11.5h1q17 0 23 22q3 21 3 37q-1 6 -2.5 14t-2.5 14t-1 7v0zM934 101
q-23 -4 -38.5 -22t-15.5 -42q0 -10 3 -19l-27 -16q-6 6 -11 9q-19 15 -35 15t-36 -15q-2 -1 -5.5 -5t-5.5 -4l-27 14q3 10 3 19q0 24 -15.5 43t-38.5 21q-2 5 -2 21q0 3 1 11t1 10q23 3 38.5 21.5t15.5 42.5q0 9 -3 19l29 16q1 -1 5 -4.5t6 -5.5q20 -12 35 -12q16 0 34 12
q5 4 11 10l27 -16q-3 -10 -3 -19q0 -24 16 -43t38 -21q2 -5 2 -21q0 -2 -1 -9.5t-1 -9.5v0z" />
    <glyph glyph-name="che" unicode="&#xe772;" horiz-adv-x="1037" 
d="M879 803q-8 15 -25.5 22.5t-31.5 7.5h-13h-289h-16h-289q-3 -2 -14 -0.5t-29.5 -6.5t-26.5 -23t-43.5 -103.5t-67 -169t-31.5 -81.5v-463q0 -2 2 -5.5t8.5 -12t15 -15.5t24.5 -12.5t35 -5.5t35 5.5t24.5 13t14 15t7.5 12.5l2 5v71h337h8h337v-71q1 -2 2 -5.5t7.5 -12
t14.5 -15.5t23.5 -12.5t35 -5.5t35 5.5t24.5 13t15.5 15t8.5 12.5l2 5v463q-124 320 -142 354v0zM208 216q-36 0 -61.5 25.5t-25.5 61.5t25.5 61.5t61.5 25.5t61.5 -25.5t25.5 -61.5t-25.5 -61.5t-61.5 -25.5v0zM816 216q-36 0 -61.5 25.5t-25.5 61.5t25.5 61.5t61.5 25.5
t61.5 -25.5t25.5 -61.5t-25.5 -61.5t-61.5 -25.5v0zM893 506h-357h-48h-357q-5 0 -8 3.5t-4 6.5v3q69 213 77 229q3 7 10 10.5t12 3.5h5h277h24h277q19 2 27 -14l77 -229q-1 -13 -12 -13v0zM893 506z" />
    <glyph glyph-name="exit" unicode="&#xe603;" 
d="M514 -93q-89 0 -171 34q-78 33 -139 94t-94 140q-35 81 -35 170q0 109 51 204q48 92 133 153q12 8 26 5.5t22 -14t6 -25.5t-14 -22q-72 -52 -113 -129q-42 -80 -42 -172q0 -74 28 -141.5t80.5 -120t120 -80.5t141.5 -28t141.5 28t120 80.5t80.5 120t28 141.5
q0 92 -42 172q-41 78 -113 129q-12 8 -14 22t6 25.5t22 14t26 -5.5q85 -61 133 -153q51 -95 51 -204q0 -89 -35 -170q-33 -79 -93.5 -139.5t-139.5 -94.5q-82 -34 -171 -34v0zM524 383q-14 0 -24 10t-10 24v406q0 14 10 24.5t24.5 10.5t24.5 -10.5t10 -24.5v-406
q0 -14 -10 -24t-25 -10v0zM524 383z" />
    <glyph glyph-name="zhankai" unicode="&#xe612;" 
d="M922 801q7 5 7 13t-5 13l-44 47q-12 12 -25 1l-331 -271q-12 -9 -24 0l-331 271q-13 11 -25 -1l-44 -47q-5 -5 -5 -13t7 -13l397 -342q13 -10 26 0zM100 415q-5 -6 -5 -14t7 -13l398 -342q12 -10 24 0l398 342q7 5 7 13t-5 14l-44 46q-12 12 -25 2l-331 -272
q-12 -9 -24 0l-336 276q-8 6 -16 -2z" />
    <glyph glyph-name="yunyingguanli" unicode="&#xe65d;" 
d="M508 -30q-59 0 -101 40t-42 96.5t42 96.5t101 40q40 0 74 -20t52 -54l3 -5l5 2q65 33 105 93t44 131l105 33v-17q0 -119 -71 -215q-70 -95 -183 -134l-3 -1l-1 -2q-16 -38 -51.5 -61t-78.5 -23zM300 95q-79 49 -126 128q-50 85 -50 183q0 44 11 86l1 3l-3 2
q-39 40 -39 95q0 56 41.5 96t100 40t100.5 -40t42 -96t-41 -96t-99 -41h-5l-1 -4q-3 -22 -3 -45q0 -59 25.5 -113t72.5 -93zM788.5 447q-58.5 0 -100.5 40t-42 96q0 26 10 49l2 5l-5 3q-66 37 -143 37q-45 0 -88 -13l-61 84q71 29 149 29q122 0 221 -66l2 -2l3 1
q25 10 52 10q59 0 100.5 -40t41.5 -96.5t-41.5 -96.5t-100 -40z" />
    <glyph glyph-name="xinjian2" unicode="&#xe600;" 
d="M973 435h-410v410q0 19 -16 35t-35 16t-35 -16t-16 -35v-410h-410q-19 0 -35 -16t-16 -35t16 -35t35 -16h410v-410q0 -19 16 -35t35 -16t35 16t16 35v410h410q19 0 35 16t16 35t-16 35t-35 16v0v0z" />
    <glyph glyph-name="wangluo" unicode="&#xe60f;" horiz-adv-x="1322" 
d="M26 621q-15 -15 -15 -37q0 -23 16 -38.5t38 -15.5t38 15q114 114 263 174t299.5 60t299 -60t263.5 -174q16 -15 37 -15q23 0 39 15.5t16 38.5q0 22 -16 37q-130 130 -299 198t-340 68t-340 -68t-299 -198zM1073 452q-113 112 -264 152t-302.5 0t-263.5 -152
q-16 -16 -16 -38t16 -38t39 -16q21 0 37 15q92 92 215.5 124.5t246.5 0t215 -124.5q16 -15 38 -15t38 16t16 38t-15 38zM880 285q-94 94 -226.5 94t-226.5 -94q-15 -16 -15 -38t15.5 -38t38.5 -16q22 0 37 15q63 63 151 63t150 -63q16 -16 38 -16t38 16t16 38.5t-16 38.5v0z
M767 -2q0 48 -33.5 82t-81.5 34t-82 -34t-34 -82t34 -82t82 -34t81.5 34t33.5 82z" />
    <glyph glyph-name="jilu" unicode="&#xe602;" horiz-adv-x="1291" 
d="M762 896h-512q-53 0 -90.5 -37.5t-37.5 -90.5v-768q0 -53 37.5 -90.5t90.5 -37.5h640q53 0 90.5 37.5t37.5 90.5v640zM954 0q0 -26 -18.5 -45t-45.5 -19h-640q-27 0 -45.5 19t-18.5 45v768q0 27 18.5 45.5t45.5 18.5h415l1 -192q0 -50 35 -73t93 -23h160v-544v0zM794 608
q-26 0 -45 19t-19 45v160l224 -224h-160zM762 352h-384q-13 0 -22.5 -9.5t-9.5 -22.5t9.5 -22.5t22.5 -9.5h384q13 0 22.5 9.5t9.5 22.5t-9.5 22.5t-22.5 9.5zM762 192h-384q-13 0 -22.5 -9.5t-9.5 -22.5t9.5 -22.5t22.5 -9.5h384q13 0 22.5 9.5t9.5 22.5t-9.5 22.5
t-22.5 9.5z" />
    <glyph glyph-name="fangda" unicode="&#xe67e;" 
d="M481 354q-8 8 -19.5 8t-19.5 -8l-228 -229v174q0 12 -8.5 20t-20 8t-19.5 -8t-8 -20v-240q0 -12 9 -20q8 -8 19 -8h241q11 0 19.5 8t8.5 19.5t-8.5 19.5t-19.5 8h-174l228 228q8 9 8 20.5t-8 19.5zM857 730q-8 8 -19 8h-241q-11 0 -19.5 -8t-8.5 -19.5t8.5 -19.5t19.5 -8
h174l-229 -229q-8 -8 -8 -19.5t8.5 -19.5t19.5 -8t20 8l228 229v-175q0 -11 8 -19t19.5 -8t20 8t8.5 19v241q0 11 -9 20z" />
    <glyph glyph-name="wangluoyichang" unicode="&#xe6ed;" 
d="M953 514q-8 -10 -21.5 -10.5t-22.5 7.5q-68 59 -138 97t-130 53.5t-121 16t-108.5 -9.5t-96 -30t-79 -38t-61 -40.5t-40 -31.5t-17.5 -17q-10 -9 -22.5 -9t-22.5 9q-8 9 -8.5 21.5t8.5 22.5q2 2 16 14.5t43 34t66.5 44.5t89 43.5t107 34.5t123 13t135.5 -16.5
t145.5 -57.5t152.5 -107q10 -8 10.5 -21t-8.5 -23zM826 424q18 -13 9 -34q-25 6 -49 6q-10 0 -22 -1q-58 46 -118 70.5t-108 27.5t-95.5 -7t-80 -26t-61.5 -36.5t-40.5 -31.5t-16.5 -17q-9 -11 -24 -11q-10 0 -20 8t-10 21.5t8 22.5v0q9 10 21.5 21t50 37t76 43.5t97 29.5
t116 6.5t128.5 -37.5t139 -92zM503 368q67 3 131 -37q-22 -23 -36 -52q-47 28 -92 26q-22 0 -44.5 -7.5t-38.5 -17.5t-28.5 -20.5t-19.5 -17.5l-6 -7q-9 -10 -22 -11.5t-23 6.5t-11.5 20.5t7.5 23.5q2 3 9.5 11t25 22.5t38 27t50.5 22t60 11.5zM512.5 201q26.5 0 45 -18.5
t18.5 -44.5t-18.5 -44t-45 -18t-45 18t-18.5 44t18.5 44.5t45 18.5zM786 341q65 0 110.5 -45.5t45.5 -110t-45.5 -110.5t-110.5 -46t-110.5 45.5t-45.5 110.5t45.5 110.5t110.5 45.5zM772.5 97.5q5.5 -5.5 13 -5.5t13 5.5t5.5 13.5t-5.5 13.5t-13 5.5t-13 -5.5t-5.5 -13.5
t5.5 -13.5zM761 249l11 -93v0q0 -6 3.5 -9.5t9 -3.5t9 3.5t4.5 9.5v0l10 93q1 2 1 5q0 10 -7 17.5t-17 7.5t-17 -7.5t-7 -17.5v-5z" />
    <glyph glyph-name="suoxiao" unicode="&#xe6f6;" 
d="M612 450h1h224q13 0 22 9t9 22t-9 22t-22 9h-148l202 203q10 10 10 24t-10 24t-23.5 10t-23.5 -10l-203 -204v147q0 12 -9 21t-21.5 9t-21.5 -9t-9 -21v-225q0 -13 9 -22t22 -9h0.5h0.5zM383 209v-147q0 -13 9 -22t21.5 -9t21.5 9t9 22v225q0 12 -9 21t-22 9h-0.5h-0.5
h-1h-224q-13 0 -22 -9t-9 -21.5t9 -21.5t22 -9h148l-202 -204q-10 -10 -10 -24t10 -23.5t23.5 -9.5t23.5 9z" />
    <glyph glyph-name="jituanguanli" unicode="&#xe601;" 
d="M92 -31l-26 3q-9 3 -14.5 6t-13.5 8.5t-11.5 11.5t-8.5 16t-3.5 21.5t2.5 28.5q46 126 53 144q34 65 66.5 88t92.5 37q103 16 264 0q40 -4 24 -40q-5 -11 -12 -21q-81 -132 -46 -277q9 -30 1 -43t-38 -14q-12 0 -32 0.5t-29 0.5q-3 0 -12.5 1t-12.5 1q-45 5 -122.5 14
t-121.5 14zM240 645v0q0 -60 36.5 -123t87.5 -94q24 -13 60.5 -23t64 -10t64 10t60.5 23q52 31 88 94t36 123v0v1q0 59 -36 122.5t-88 93.5q-24 14 -60.5 24t-64 10t-64 -10t-60.5 -24q-51 -30 -87.5 -93.5t-36.5 -122.5v-1zM661 114q0 -38 25.5 -64t62 -26t62 26t25.5 63.5
t-25.5 63.5t-62 26t-62 -26t-25.5 -63v0zM707 114q0 17 12 30t29 13q18 0 30 -12.5t12 -30.5q2 -17 -11 -30.5t-30.5 -13.5t-29.5 12.5t-12 31.5zM952 190h-3q-20 0 -35 15t-15 35q0 5 2 12l2 7q5 11 1.5 24.5t-13.5 21.5l-59 33q-4 2 -14 2q-18 0 -28 -12q-5 -7 -18 -15
t-21 -8q-17 0 -40 23q-10 12 -27 12q-11 0 -15 -2h-2l-59 -33h-2q-15 -11 -15 -30q0 -7 3 -14l2 -7t2 -12q0 -20 -15 -34.5t-35 -14.5h-2q-22 0 -30 -30l-1 -7.5t-2 -19t-1 -20.5t1 -20t2 -19t1 -9q7 -29 30 -29h4q20 0 35 -15t15 -35q0 -5 -2 -12l-2 -7q-5 -10 -1.5 -24
t13.5 -22l57 -33q4 -2 14 -2q18 0 28 13q5 7 18 16t21 9q17 0 42 -25q10 -13 30 -13q10 0 16 4l59 34h2q11 7 14.5 19.5t-1.5 23.5l-2.5 7t-2.5 12q0 20 15 35t36 15h2q22 0 29 29q4 27 4 48q-1 7 -3 17.5t-3.5 18.5t-1.5 9q-7 29 -29 29zM843 3q0 -12 4 -24l-36 -21
q-6 7 -14 12q-25 19 -46 19t-46 -19q-4 -2 -8.5 -6.5t-6.5 -5.5l-36 18q5 13 5 25q0 32 -21 56t-51 27q-2 7 -2 28q0 4 1 14t1 13q30 4 51 28t21 55q0 12 -5 25l38 20q2 -1 6.5 -5.5t8.5 -6.5q26 -17 46 -17t44 17q6 4 14 12l36 -20q-4 -13 -4 -25q0 -32 20.5 -56t50.5 -27
q2 -7 2 -27q0 -4 -1 -13t-1 -12q-30 -5 -50.5 -29t-20.5 -55z" />
    <glyph glyph-name="zhongxinshangchuan" unicode="&#xe71a;" 
d="M614 736q76 -7 128.5 -51.5t64.5 -117.5h-56l91 -137l92 136h-63q-13 101 -82 164.5t-169 73.5q-13 1 -23.5 -9t-10.5 -25q1 -13 9 -23t19 -11zM472 805h-318q-14 0 -23.5 -10t-9.5 -25v-303q0 -15 9.5 -25t23.5 -10h318q14 0 23 10t9 25v303q0 15 -9 25t-23 10v0v0z
M410 33q-85 7 -139.5 61t-57.5 142h60l-91 137l-91 -136h60q2 -114 73 -187.5t180 -84.5q13 -1 24 9.5t11 24.5v1q0 12 -8 21.5t-21 11.5v0zM872 338q13 0 22.5 -10.5t9.5 -24.5v-305q0 -15 -9.5 -25t-22.5 -10h-319q-13 0 -22.5 10t-9.5 25v305q0 14 9.5 24.5t22.5 10.5
h319v0zM825 281h-225q-9 0 -16 -7t-7 -17v-215q0 -11 7 -18t16 -7h225q9 0 15.5 7t6.5 18v215q0 10 -6.5 17t-15.5 7v0zM425 750v0q9 0 16 -7.5t7 -17.5v-215q0 -11 -6.5 -18t-16.5 -7h-224q-10 0 -16.5 7t-6.5 18v215q0 10 6.5 17.5t16.5 7.5h224z" />
    <glyph glyph-name="ShapeCopy" unicode="&#xe605;" 
d="M721 590l-327 -328l-86 149q-4 8 -13 13.5t-18 5.5t-18 -5q-7 -4 -12.5 -13.5t-5.5 -17.5q0 -10 5 -18l109 -191q4 -7 13 -12.5t18 -5.5q16 0 27 12l359 360q11 11 11 26t-10.5 25.5t-25.5 10.5t-26 -11v0zM512 896q-139 0 -257 -68.5t-186.5 -186.5t-68.5 -257
t68.5 -257t186.5 -186.5t257 -68.5t257 68.5t186.5 186.5t68.5 257t-68.5 257t-186.5 186.5t-257 68.5zM823 73q-25 -25 -66 -53t-74 -41q-81 -35 -171 -35t-171 34q-33 14 -74 42t-66 53t-53 66t-41 74q-15 34 -25 83.5t-10 86.5v1q0 90 34 171q14 33 42 74t53 66t66 53
t74 41q81 35 171 35t171 -35q79 -33 140 -94t94 -140q35 -81 35 -171v-1q0 -75 -38 -166t-91 -144v0z" />
    <glyph glyph-name="Shape" unicode="&#xe606;" 
d="M737 747q-56 0 -108 -20q-53 -22 -94 -62l-268 -265q-19 -19 -33 -52.5t-14 -60.5v-1q0 -68 48 -115q48 -48 116 -48t116 47l234 232q12 12 12 29t-12 28.5t-28.5 11.5t-28.5 -11l-235 -232q-10 -10 -26.5 -17t-30.5 -7h-1v0q-14 0 -31 7t-27 17t-17 27t-7 31v0v1
q0 13 6.5 29.5t16.5 26.5l268 264q24 25 66 42t76 17h2v0q35 0 77.5 -17.5t67.5 -42.5q60 -59 60 -143v-1q0 -35 -17 -76t-42 -65l-284 -281q-36 -36 -98 -61.5t-113 -25.5h-2h-1q-52 0 -114.5 26t-99.5 62t-63 98t-26 114v0v2q0 51 25.5 112.5t62.5 97.5l366 362
q12 11 12 28t-12 29t-29 12t-29 -12l-366 -362q-46 -46 -79 -124t-33 -143v-2q0 -75 29 -143q25 -62 87 -123.5t124 -86.5q29 -11 72 -19.5t74 -8.5t73 8t71 20q30 11 67 35.5t60 47.5l284 280q34 34 58.5 92.5t24.5 107.5v1q0 48 -24.5 107t-59.5 93t-94 58.5t-108 24.5h-1
v0z" />
    <glyph glyph-name="ShapeCopy1" unicode="&#xe609;" horiz-adv-x="1365" 
d="M1186 865l-671 -670l-335 335q-13 13 -35 22t-40 9q-43 0 -74 -31t-31 -75q0 -18 9 -39.5t22 -34.5l409 -410l4 -3q12 -11 33 -19.5t38 -8.5q18 0 40 9.5t34 21.5l745 745q13 13 22 35t9 40q0 43 -31 74t-74 31q-18 0 -40 -9t-35 -22h1z" />
    <glyph glyph-name="ShapeCopy2" unicode="&#xe60a;" horiz-adv-x="1228" 
d="M614 470v0l213 -216l-62 -63l-107 108v-382q0 -19 -13 -32t-31 -13t-31 13t-13 32v382l-106 -108l-62 63l212 216v0v0zM625 896q136 0 240 -87.5t130 -221.5q97 0 165 -69.5t68 -167.5q0 -93 -61.5 -160.5t-150.5 -72.5h-101q-26 0 -44 18.5t-18 44.5v-37q0 26 18.5 44.5
t44.5 18.5h85q59 2 99.5 43.5t40.5 100.5q0 60 -41 103t-99 45l-57 -2v0q-13 0 -22.5 9.5t-11.5 21.5q-3 43 -2 43q-20 102 -99.5 169.5t-183.5 67.5v0q-54 0 -117.5 -29.5t-98.5 -71.5q-19 -23 -26 -34l-8 -15q-6 -11 -19.5 -18.5t-25.5 -6.5q-4 1 -10.5 1.5t-24 1.5
t-26.5 0q-78 -12 -129.5 -73t-51.5 -142q0 -90 62.5 -152t151.5 -62q19 -1 34 -14t15 -31t-15 -31t-34 -13q-126 0 -214 88t-88 215t88.5 217t213.5 90h11q52 78 134 123.5t178 45.5v0z" />
    <glyph glyph-name="Shape1" unicode="&#xe60b;" 
d="M666 590l-154 -155l-154 155q-11 10 -25 10q-15 0 -25.5 -11t-10.5 -25q0 -15 10 -25l154 -155l-154 -155q-10 -10 -10 -24q0 -15 10.5 -26t25.5 -11q14 0 25 10l154 155l154 -155q11 -10 26 -10t25.5 10.5t10.5 25t-11 25.5l-154 155l154 155q11 10 11 25t-10.5 25.5
t-25.5 10.5t-26 -10zM512 896q-139 0 -257 -68.5t-186.5 -186.5t-68.5 -257t68.5 -257t186.5 -186.5t257 -68.5t257 68.5t186.5 186.5t68.5 257t-68.5 257t-186.5 186.5t-257 68.5zM823 73q-25 -25 -66 -53t-74 -41q-34 -15 -83.5 -25t-86.5 -10h-1q-90 0 -171 34
q-33 14 -74 42t-66 53t-53 66t-41 74q-15 33 -25 83t-10 87v1q0 90 34 171q14 33 42 74t53 66t66 53t74 41q33 15 83 25t87 10h1q90 0 171 -34q33 -14 74 -42t66 -53t53 -66t41 -74q15 -33 25 -83t10 -87v-1v-1q0 -75 -38 -166t-91 -144v0z" />
    <glyph glyph-name="Path" unicode="&#xe60c;" 
d="M878 -103l-366 366l-366 -366q-10 -10 -28 -17.5t-32.5 -7.5t-32 7.5t-28 17.5t-18 27.5t-7.5 32.5t7.5 32.5t17.5 27.5l367 367l-367 366q-10 11 -17.5 28.5t-7.5 32.5q0 35 25 60t60 25h1q35 0 60 -25l366 -366l366 366q11 10 28.5 17.5t32.5 7.5v0v0q36 0 60.5 -25
t24.5 -60q0 -15 -7 -32.5t-18 -27.5l-366 -367l366 -367q11 -10 18 -27.5t7 -32.5t-7 -32.5t-17.5 -27.5t-28 -17.5t-32.5 -7.5t-32.5 7.5t-28.5 17.5z" />
    <glyph glyph-name="CombinedShape" unicode="&#xe60d;" 
d="M325 624v0q-18 0 -31.5 13t-13.5 31.5t14 31.5l182 182q13 14 31.5 14t31.5 -14l182 -182q14 -13 14 -31.5t-13.5 -31.5t-31.5 -13v0v0q-19 0 -32 13l-106 106v-559v0q0 -19 -13 -32t-31.5 -13t-31.5 13t-13 32v0v559l-106 -106q-13 -13 -32 -13v0zM984 237
q16 0 28 -11.5t12 -27.5v-255q0 -29 -21 -50t-50 -21h-882q-29 0 -50 21t-21 50v255v2q0 16 11.5 27.5t28 11.5t28 -11.5t11.5 -27.5v-2v-224q0 -9 7 -16t16 -7h819v0q10 0 17 7t7 16v224q0 16 11.5 27.5t27.5 11.5z" />
    <glyph glyph-name="Shape2" unicode="&#xe60e;" 
d="M512 896q-139 0 -257 -68.5t-186.5 -186.5t-68.5 -257t68.5 -257t186.5 -186.5t257 -68.5t257 68.5t186.5 186.5t68.5 257t-68.5 257t-186.5 186.5t-257 68.5zM823 73q-25 -25 -66 -53t-74 -41q-34 -15 -83.5 -25t-86.5 -10h-1h-1q-75 0 -166 37.5t-144 91.5
q-25 25 -53 66t-41 74q-15 34 -25 83.5t-10 86.5v1v1q0 75 37.5 166t91.5 144q25 25 66 53t74 41q34 15 83.5 25t86.5 10h1h1q75 0 166 -37.5t144 -91.5q61 -61 94 -140q35 -81 35 -171v-1q0 -75 -38 -166t-91 -144zM507 232h-4q-13 2 -22.5 12.5t-9.5 23.5v4q3 33 23.5 63
t58.5 67q30 30 45.5 52t18 31.5t2.5 23.5q1 2 1 4q0 16 -8 35t-19 30q-14 14 -37.5 24.5t-43.5 10.5v0v0q-45 -1 -76.5 -32.5t-31.5 -75.5q0 -15 -10.5 -25.5t-25.5 -10.5t-25.5 10.5t-10.5 25.5q0 74 53 127q21 22 58 37.5t68 15.5v0h1q32 0 71.5 -17t61.5 -40
q50 -53 46 -123q-2 -37 -19.5 -70t-67.5 -84q-59 -58 -61 -86q-2 -14 -12.5 -23.5t-23.5 -9.5v0v0zM462 127q0 18 13 30.5t30.5 12.5t30.5 -12.5t13 -30.5t-13 -30.5t-30.5 -12.5t-30.5 12.5t-13 30.5z" />
    <glyph glyph-name="Shape3" unicode="&#xe611;" 
d="M486 502q11 -11 27 -11t28 11l113 113q11 11 11 27t-11.5 27.5t-27.5 11.5t-27 -11l-86 -87l-86 86q-11 12 -27 12t-27.5 -11.5t-11.5 -27.5t11 -27l114 -113v0zM717 453h-406q-16 0 -27.5 -11t-11.5 -27t11.5 -27.5t27.5 -11.5h163v-100h-103q-16 0 -27.5 -11t-11.5 -27
t11.5 -27.5t27.5 -11.5h103v-73q0 -16 11.5 -27.5t27.5 -11.5t27 11.5t11 27.5v73h107q16 0 27 11.5t11 27.5t-11 27t-27 11h-107v100h166q16 0 27 11.5t11 27.5t-11 27t-27 11zM512 896q-102 -2 -195.5 -43t-161 -110t-107.5 -163t-40 -196t40 -196t107.5 -163t161 -110
t195.5 -43q102 2 195.5 43t161 110t107.5 163t40 196t-40 196t-107.5 163t-161 110t-195.5 43zM823 73q-25 -25 -66 -52.5t-74 -41.5q-34 -15 -83.5 -25t-86.5 -10h-1h-1q-75 0 -166 38t-144 91q-54 53 -91.5 144t-37.5 166v1v1q0 75 38 166t91 144q25 25 66 53t74 41
q34 15 83.5 25t86.5 10h1h1q75 0 166 -37.5t144 -91.5q25 -25 53 -66t41 -74q35 -81 35 -171v-1q0 -75 -38 -166t-91 -144z" />
    <glyph glyph-name="shouru" unicode="&#xe613;" 
d="M369 265q27 67 83 121q-120 4 -215.5 25.5t-152.5 59t-57 85.5v-108q0 -64 96 -114.5t246 -68.5zM507 448q6 0 16.5 0.5t13.5 0.5q114 63 251 63q20 0 65 -5q64 26 99.5 60.5t35.5 72.5v64q0 52 -64.5 96.5t-175 70t-241 25.5t-241 -25.5t-175 -70t-64.5 -96.5v-64
q0 -52 64.5 -96.5t175 -70t240.5 -25.5v0zM394 5q-163 12 -265 56.5t-102 110.5v-108q0 -52 64.5 -96.5t175 -70t240.5 -25.5q6 0 14.5 0.5t12.5 0.5q-89 51 -140 132zM362 74q-147 19 -241 69t-94 113v108q0 -61 89.5 -104t235.5 -59q-5 -35 -5 -41q0 -39 15 -86zM689 -23
h-136q-19 1 -29 12t-12 26q2 14 12 22.5t29 9.5h136v35l-136 1q-19 1 -29 11q-10 9 -12 23q2 14 12 23t29 10h102l-95 131q-7 8 -13 17t-6 20v3q4 15 14.5 25t39.5 12q16 0 30 -9q14 -8 22 -17l107 -155l117 156q9 9 22 17q14 7 30 8q11 0 19.5 -1.5t15.5 -5.5t11.5 -11.5
t6.5 -18.5q0 -16 -14 -31l-109 -140h103q19 -1 29.5 -10t11.5 -23q-1 -14 -12 -24t-29 -11l-135 -1v-34h135q19 -1 29.5 -11t11.5 -24q-1 -14 -12 -24q-10 -9 -29 -10h-135v-59q-3 -47 -65 -47q-31 0 -48 11.5t-19 35.5v58v0z" />
    <glyph glyph-name="jinru-" unicode="&#xe614;" horiz-adv-x="1216" 
d="M626 250q-31 0 -52 24l-211 237q-17 20 -17 47v0q0 30 20.5 50.5t49.5 20.5q31 0 52 -23l88 -100v319q0 29 20.5 50t49.5 21t49.5 -21t20.5 -50v-319l88 100q21 23 53 23q29 0 49.5 -20.5t20.5 -50.5q0 -27 -18 -47l-211 -237q-21 -24 -52 -24zM140 214v-200h936v200
q0 30 20.5 50.5t49.5 20.5t49.5 -20.5t20.5 -49.5v-1v-271v-1q0 -29 -20.5 -49.5t-49.5 -20.5h-1076q-29 0 -49.5 21t-20.5 50v0v271q0 30 20.5 50.5t49.5 20.5t49.5 -20.5t20.5 -50.5v0z" />
    <glyph glyph-name="jinru-copy" unicode="&#xe615;" horiz-adv-x="1216" 
d="M626 896q-31 0 -52 -24l-211 -237q-17 -20 -17 -47v0q0 -30 20.5 -51t49.5 -21q31 0 52 24l88 100v-319q0 -30 20.5 -50.5t49.5 -20.5t49.5 20.5t20.5 50.5v319l88 -100q21 -23 53 -23q29 0 49.5 20.5t20.5 50.5q0 27 -18 47l-211 237q-8 10 -23.5 17t-28.5 7v0v0z
M140 214v-200h936v200q0 30 20.5 50.5t49.5 20.5t49.5 -20.5t20.5 -49.5v-1v-271v-1q0 -29 -20.5 -49.5t-49.5 -20.5h-1076q-29 0 -49.5 21t-20.5 50v0v271q0 30 20.5 50.5t49.5 20.5t49.5 -20.5t20.5 -50.5v0z" />
    <glyph glyph-name="chongliuliang" unicode="&#xe616;" horiz-adv-x="1152" 
d="M0 411h250v-539h-250v539zM451 896h250v-1024h-250v1024zM902 734h250v-862h-250v862z" />
  </font>
</defs>
</svg>
